<svg version="1.1" viewBox="0.0 0.0 96.0 96.0" fill="none" stroke="none" stroke-linecap="square" stroke-miterlimit="10" xmlns:xlink="http://www.w3.org/1999/xlink" xmlns="http://www.w3.org/2000/svg"><clipPath id="p.0"><path d="m0 0l96.0 0l0 96.0l-96.0 0l0 -96.0z" clip-rule="nonzero"/></clipPath><g clip-path="url(#p.0)"><path fill="#000000" fill-opacity="0.0" d="m0 0l96.0 0l0 96.0l-96.0 0z" fill-rule="evenodd"/><path fill="#ffffff" d="m9.590551 -0.015748031l57.6063 0l0 9.606299l-57.6063 0z" fill-rule="evenodd"/><path fill="#ffffff" d="m9.590551 9.590551l9.606298 0l0 67.21259l-9.606298 0z" fill-rule="evenodd"/><path fill="#ffffff" d="m28.80315 28.80315l9.6063 0l0 67.2126l-9.6063 0z" fill-rule="evenodd"/><path fill="#ffffff" d="m28.80315 19.19685l57.606297 0l0 9.6063l-57.606297 0z" fill-rule="evenodd"/><path fill="#ffffff" d="m76.80315 28.80315l9.6063 0l0 67.2126l-9.6063 0z" fill-rule="evenodd"/><path fill="#ffffff" d="m38.40945 86.37795l38.393696 0l0 9.6063l-38.393696 0z" fill-rule="evenodd"/></g></svg>